<svg xmlns="http://www.w3.org/2000/svg" width="856" height="149" viewBox="0 0 856 149" fill="none"><path d="M834.878 82.7836C833.918 77.5996 832.19 73.6636 829.694 70.9756C827.294 68.2876 823.598 66.9436 818.606 66.9436C815.342 66.9436 812.606 67.5196 810.398 68.6716C808.286 69.7276 806.558 71.0716 805.214 72.7037C803.966 74.3357 803.054 76.0637 802.478 77.8876C801.998 79.7116 801.71 81.3436 801.614 82.7836H834.878ZM801.614 95.7436C801.902 102.368 803.582 107.168 806.654 110.144C809.726 113.12 814.142 114.608 819.902 114.608C824.03 114.608 827.582 113.6 830.558 111.584C833.534 109.472 835.358 107.264 836.03 104.96H854.03C851.15 113.888 846.734 120.272 840.782 124.112C834.83 127.952 827.63 129.872 819.182 129.872C813.326 129.872 808.046 128.96 803.342 127.136C798.638 125.216 794.654 122.528 791.39 119.072C788.126 115.616 785.582 111.488 783.758 106.688C782.03 101.888 781.166 96.6076 781.166 90.8476C781.166 85.2796 782.078 80.0956 783.902 75.2956C785.726 70.4956 788.318 66.3676 791.678 62.9116C795.038 59.3596 799.022 56.5756 803.63 54.5596C808.334 52.5436 813.518 51.5356 819.182 51.5356C825.518 51.5356 831.038 52.7836 835.742 55.2796C840.446 57.6796 844.286 60.9436 847.262 65.0716C850.334 69.1996 852.542 73.9036 853.886 79.1836C855.23 84.4636 855.71 89.9836 855.326 95.7436H801.614Z" fill="white"></path><path d="M747.217 25.1836H767.665V128H747.217V25.1836Z" fill="white"></path><path d="M712.185 90.8476C712.185 87.6796 711.849 84.6556 711.177 81.7756C710.505 78.8956 709.449 76.3516 708.009 74.1436C706.569 71.9356 704.745 70.2076 702.537 68.9596C700.425 67.6156 697.833 66.9436 694.761 66.9436C691.785 66.9436 689.193 67.6156 686.985 68.9596C684.777 70.2076 682.953 71.9356 681.513 74.1436C680.073 76.3516 679.017 78.8956 678.345 81.7756C677.673 84.6556 677.337 87.6796 677.337 90.8476C677.337 93.9196 677.673 96.8956 678.345 99.7756C679.017 102.656 680.073 105.2 681.513 107.408C682.953 109.616 684.777 111.392 686.985 112.736C689.193 113.984 691.785 114.608 694.761 114.608C697.833 114.608 700.425 113.984 702.537 112.736C704.745 111.392 706.569 109.616 708.009 107.408C709.449 105.2 710.505 102.656 711.177 99.7756C711.849 96.8956 712.185 93.9196 712.185 90.8476ZM657.609 25.1836H678.057V62.6236H678.345C680.841 58.7836 684.201 55.9996 688.425 54.2716C692.745 52.4476 697.209 51.5356 701.817 51.5356C705.561 51.5356 709.257 52.3036 712.905 53.8396C716.553 55.3756 719.817 57.7276 722.697 60.8956C725.673 64.0636 728.073 68.1436 729.897 73.1356C731.721 78.0316 732.633 83.8876 732.633 90.7036C732.633 97.5196 731.721 103.424 729.897 108.416C728.073 113.312 725.673 117.344 722.697 120.512C719.817 123.68 716.553 126.032 712.905 127.568C709.257 129.104 705.561 129.872 701.817 129.872C696.345 129.872 691.449 129.008 687.129 127.28C682.809 125.552 679.545 122.624 677.337 118.496H677.049V128H657.609V25.1836Z" fill="white"></path><path d="M573.058 76.4476C573.346 71.6476 574.546 67.6636 576.658 64.4956C578.77 61.3276 581.458 58.7836 584.722 56.8636C587.986 54.9436 591.634 53.5996 595.666 52.8316C599.794 51.9676 603.922 51.5356 608.05 51.5356C611.794 51.5356 615.586 51.8236 619.426 52.3996C623.266 52.8796 626.77 53.8876 629.938 55.4236C633.106 56.9596 635.698 59.1196 637.714 61.9036C639.73 64.5916 640.738 68.1916 640.738 72.7037V111.44C640.738 114.8 640.93 118.016 641.314 121.088C641.698 124.16 642.37 126.464 643.33 128H622.594C622.21 126.848 621.874 125.696 621.586 124.544C621.394 123.296 621.25 122.048 621.154 120.8C617.89 124.16 614.05 126.512 609.634 127.856C605.218 129.2 600.706 129.872 596.098 129.872C592.546 129.872 589.234 129.44 586.162 128.576C583.09 127.712 580.402 126.368 578.098 124.544C575.794 122.72 573.97 120.416 572.626 117.632C571.378 114.848 570.754 111.536 570.754 107.696C570.754 103.472 571.474 100.016 572.914 97.3276C574.45 94.5436 576.37 92.3357 578.674 90.7037C581.074 89.0716 583.762 87.8716 586.738 87.1036C589.81 86.2396 592.882 85.5676 595.954 85.0876C599.026 84.6076 602.05 84.2236 605.026 83.9356C608.002 83.6476 610.642 83.2156 612.946 82.6396C615.25 82.0637 617.074 81.2477 618.418 80.1917C619.762 79.0397 620.386 77.4076 620.29 75.2956C620.29 73.0876 619.906 71.3596 619.138 70.1116C618.466 68.7676 617.506 67.7596 616.258 67.0876C615.106 66.3196 613.714 65.8396 612.082 65.6476C610.546 65.3596 608.866 65.2156 607.042 65.2156C603.01 65.2156 599.842 66.0796 597.538 67.8076C595.234 69.5356 593.89 72.4156 593.506 76.4476H573.058ZM620.29 91.5676C619.426 92.3356 618.322 92.9597 616.978 93.4397C615.73 93.8237 614.338 94.1596 612.802 94.4476C611.362 94.7356 609.826 94.9756 608.194 95.1676C606.562 95.3596 604.93 95.5996 603.298 95.8876C601.762 96.1756 600.226 96.5596 598.69 97.0396C597.25 97.5196 595.954 98.1916 594.802 99.0556C593.746 99.8236 592.882 100.832 592.21 102.08C591.538 103.328 591.202 104.912 591.202 106.832C591.202 108.656 591.538 110.192 592.21 111.44C592.882 112.688 593.794 113.696 594.946 114.464C596.098 115.136 597.442 115.616 598.978 115.904C600.514 116.192 602.098 116.336 603.73 116.336C607.762 116.336 610.882 115.664 613.09 114.32C615.298 112.976 616.93 111.392 617.986 109.568C619.042 107.648 619.666 105.728 619.858 103.808C620.146 101.888 620.29 100.352 620.29 99.1996V91.5676Z" fill="white"></path><path d="M548.217 53.5517H563.193V67.2317H548.217V104.096C548.217 107.552 548.793 109.856 549.945 111.008C551.097 112.16 553.401 112.736 556.857 112.736C558.009 112.736 559.113 112.688 560.169 112.592C561.225 112.496 562.233 112.352 563.193 112.16V128C561.465 128.288 559.545 128.48 557.433 128.576C555.321 128.672 553.257 128.72 551.241 128.72C548.073 128.72 545.049 128.48 542.169 128C539.385 127.616 536.889 126.8 534.681 125.552C532.569 124.304 530.889 122.528 529.641 120.224C528.393 117.92 527.769 114.896 527.769 111.152V67.2317H515.385V53.5517H527.769V31.2317H548.217V53.5517Z" fill="white"></path><path d="M440.482 25.1836H460.93V80.3356L486.706 53.5516H510.898L482.818 80.9116L514.066 128H489.298L468.85 94.7356L460.93 102.368V128H440.482V25.1836Z" fill="white"></path><path d="M405.034 82.7836C404.074 77.5996 402.346 73.6636 399.85 70.9756C397.45 68.2876 393.754 66.9436 388.762 66.9436C385.498 66.9436 382.762 67.5196 380.554 68.6716C378.442 69.7276 376.714 71.0716 375.37 72.7037C374.122 74.3357 373.21 76.0637 372.634 77.8876C372.154 79.7116 371.866 81.3436 371.77 82.7836H405.034ZM371.77 95.7436C372.058 102.368 373.738 107.168 376.81 110.144C379.882 113.12 384.298 114.608 390.058 114.608C394.186 114.608 397.738 113.6 400.714 111.584C403.69 109.472 405.514 107.264 406.186 104.96H424.186C421.306 113.888 416.89 120.272 410.938 124.112C404.986 127.952 397.786 129.872 389.338 129.872C383.482 129.872 378.202 128.96 373.498 127.136C368.794 125.216 364.81 122.528 361.546 119.072C358.282 115.616 355.738 111.488 353.914 106.688C352.186 101.888 351.322 96.6076 351.322 90.8476C351.322 85.2796 352.234 80.0956 354.058 75.2956C355.882 70.4956 358.474 66.3676 361.834 62.9116C365.194 59.3596 369.178 56.5756 373.786 54.5596C378.49 52.5436 383.674 51.5356 389.338 51.5356C395.674 51.5356 401.194 52.7836 405.898 55.2796C410.602 57.6796 414.442 60.9436 417.418 65.0716C420.49 69.1996 422.698 73.9036 424.042 79.1836C425.386 84.4636 425.866 89.9836 425.482 95.7436H371.77Z" fill="white"></path><path d="M317.373 25.1836H337.821V128H317.373V25.1836Z" fill="white"></path><path d="M283.222 82.7836C282.262 77.5996 280.534 73.6636 278.038 70.9756C275.638 68.2876 271.942 66.9436 266.95 66.9436C263.686 66.9436 260.95 67.5196 258.742 68.6716C256.63 69.7276 254.902 71.0716 253.558 72.7037C252.31 74.3357 251.398 76.0637 250.822 77.8876C250.342 79.7116 250.054 81.3436 249.958 82.7836H283.222ZM249.958 95.7436C250.246 102.368 251.926 107.168 254.998 110.144C258.07 113.12 262.486 114.608 268.246 114.608C272.374 114.608 275.926 113.6 278.902 111.584C281.878 109.472 283.702 107.264 284.374 104.96H302.374C299.494 113.888 295.078 120.272 289.126 124.112C283.174 127.952 275.974 129.872 267.526 129.872C261.67 129.872 256.39 128.96 251.686 127.136C246.982 125.216 242.998 122.528 239.734 119.072C236.47 115.616 233.926 111.488 232.102 106.688C230.374 101.888 229.51 96.6076 229.51 90.8476C229.51 85.2796 230.422 80.0956 232.246 75.2956C234.07 70.4956 236.662 66.3676 240.022 62.9116C243.382 59.3596 247.366 56.5756 251.974 54.5596C256.678 52.5436 261.862 51.5356 267.526 51.5356C273.862 51.5356 279.382 52.7836 284.086 55.2796C288.79 57.6796 292.63 60.9436 295.606 65.0716C298.678 69.1996 300.886 73.9036 302.23 79.1836C303.574 84.4636 304.054 89.9836 303.67 95.7436H249.958Z" fill="white"></path><path d="M170.606 103.808C170.606 106.016 171.038 107.936 171.902 109.568C172.862 111.104 174.062 112.4 175.502 113.456C176.942 114.416 178.574 115.136 180.398 115.616C182.318 116.096 184.286 116.336 186.302 116.336C187.742 116.336 189.23 116.192 190.766 115.904C192.398 115.52 193.838 114.992 195.086 114.32C196.43 113.552 197.534 112.592 198.398 111.44C199.262 110.192 199.694 108.656 199.694 106.832C199.694 103.76 197.63 101.456 193.502 99.9196C189.47 98.3836 183.806 96.8476 176.51 95.3116C173.534 94.6396 170.606 93.8716 167.726 93.0076C164.942 92.0476 162.446 90.8476 160.238 89.4076C158.03 87.8716 156.254 85.9996 154.91 83.7916C153.566 81.4876 152.894 78.7036 152.894 75.4397C152.894 70.6397 153.806 66.7036 155.63 63.6316C157.55 60.5596 160.046 58.1596 163.118 56.4316C166.19 54.6076 169.646 53.3596 173.486 52.6876C177.326 51.9196 181.262 51.5356 185.294 51.5356C189.326 51.5356 193.214 51.9196 196.958 52.6876C200.798 53.4556 204.206 54.7516 207.182 56.5756C210.158 58.3996 212.606 60.8476 214.526 63.9196C216.542 66.8956 217.742 70.6876 218.126 75.2956H198.686C198.398 71.3596 196.91 68.7196 194.222 67.3756C191.534 65.9356 188.366 65.2156 184.718 65.2156C183.566 65.2156 182.318 65.3116 180.974 65.5036C179.63 65.5996 178.382 65.8876 177.23 66.3676C176.174 66.8476 175.262 67.5676 174.494 68.5276C173.726 69.3916 173.342 70.5916 173.342 72.1276C173.342 73.9516 174.014 75.4396 175.358 76.5916C176.702 77.7436 178.43 78.7036 180.542 79.4716C182.75 80.1436 185.246 80.7676 188.03 81.3437C190.814 81.9196 193.646 82.5436 196.526 83.2156C199.502 83.8876 202.382 84.7036 205.166 85.6637C208.046 86.6236 210.59 87.9196 212.798 89.5516C215.006 91.0876 216.782 93.0556 218.126 95.4557C219.47 97.7597 220.142 100.64 220.142 104.096C220.142 108.992 219.134 113.12 217.118 116.48C215.198 119.744 212.654 122.384 209.486 124.4C206.318 126.416 202.67 127.808 198.542 128.576C194.51 129.44 190.382 129.872 186.158 129.872C181.838 129.872 177.614 129.44 173.486 128.576C169.358 127.712 165.662 126.272 162.398 124.256C159.23 122.24 156.59 119.6 154.478 116.336C152.462 112.976 151.358 108.8 151.166 103.808H170.606Z" fill="white"></path><path d="M44.0878 20.7102V5.18196H38.9121V25.886H44.0878V20.7102Z" fill="#C8C8C8"></path><path d="M20.7037 45.2203V50.395H10.3675L6.2326 50.3535L6.19968 50.2673L6.21702 50.3535L0 50.395V45.2203H20.7037Z" fill="#C8C8C8"></path><path d="M15.1426 20.7124V25.8892H20.3187V20.7124H15.1426Z" fill="#808080"></path><path d="M9.9668 15.5367V20.7124H15.1423V15.5367H9.9668Z" fill="#808080"></path><path d="M9.96851 10.3619H4.79297V15.5366H9.96851V10.3619Z" fill="#C8C8C8"></path><path d="M20.3203 25.8892H25.4956V20.7134H20.3203V25.8892Z" fill="#C8C8C8"></path><path d="M15.1426 15.5366V20.7134H20.3187V15.5366H15.1426Z" fill="#C8C8C8"></path><path d="M9.9668 10.3609V15.5366H15.1423V10.3609H9.9668Z" fill="#C8C8C8"></path><path d="M20.3203 31.0649H25.4956V25.8892H20.3203V31.0649Z" fill="#C8C8C8"></path><path d="M15.1426 20.7124V25.8892H20.3187V20.7124H15.1426Z" fill="#C8C8C8"></path><path d="M9.9668 15.5377V20.7124H15.1423V15.5377H9.9668Z" fill="#C8C8C8"></path><path d="M101.825 107.317V102.13H96.6379V96.9425H91.4632V91.7678H86.2864V86.591H81.1107V81.4163H75.9349V76.2395H70.7592V71.0638H65.5834V65.888H60.4077V60.7133H55.2309V55.5365H50.0562V50.3608H44.8804V45.184H39.7037V40.0311H34.502V45.2058V50.3816V50.4086V55.5584V55.5843V60.7341V60.7601V65.9099V65.9358V71.0856V71.1105V76.2603V76.2873V81.4381V81.463V86.6128V86.6388V91.7886V91.8145V96.9643V96.9903V102.14V102.167V107.317V107.343V112.493V112.518V117.667V117.693V122.843V122.869V128.019V128.045V133.195V133.222V138.397V143.572H39.7037H44.8804V138.397H50.0552V133.222H55.2309V128.045H60.4077V122.869H65.5575V128.019V128.045V133.222H70.7332V138.371V138.397V143.572H75.909V148.749H81.0847H81.1096H86.2864V143.572H91.4621V138.397V138.371V133.195H86.2864V128.045V128.019V122.843H81.1096V117.693H86.2604H86.2864H91.4352H91.4621H96.6119H96.6379H101.798H107.001V112.518V107.317H101.825Z" fill="#C8C8C8"></path><path d="M49.2597 10.3523V15.5281H44.084V10.3523H49.2597Z" fill="black"></path><path d="M49.2597 5.17576V10.3525H44.084V5.17576H49.2597Z" fill="black"></path><path d="M49.2597 3.23716e-05V5.17578H44.084V3.23716e-05H49.2597Z" fill="black"></path><path d="M49.2597 15.5273V20.7041H44.084V15.5273H49.2597Z" fill="black"></path><path d="M25.7032 40.0374V45.2131H20.5273V40.0374H25.7032Z" fill="black"></path><path d="M20.5414 40.0374V45.2131H15.3652V40.0374H20.5414Z" fill="black"></path><path d="M15.365 40.0374V45.2131H10.1895V40.0374H15.365Z" fill="black"></path><path d="M10.1775 40.0374V45.2131H5.00195V40.0374H10.1775Z" fill="black"></path><path d="M30.6649 20.7071V25.8818H25.4902V20.7071H30.6649Z" fill="black"></path><path d="M25.497 15.5302V20.707H20.3203V15.5302H25.497Z" fill="black"></path><path d="M20.3182 10.3548V15.5305H15.1426V10.3548H20.3182Z" fill="black"></path><path d="M15.1423 5.179V10.3547H9.9668V5.179H15.1423Z" fill="black"></path><path d="M112.001 102.134V107.336H106.799V102.134H112.001Z" fill="black"></path><path d="M106.81 107.311V112.511H101.607V107.311H106.81Z" fill="black"></path><path d="M112.001 107.31V112.511H106.799V107.31H112.001Z" fill="black"></path><path d="M101.635 107.311V112.511H96.4336V107.311H101.635Z" fill="black"></path><path d="M96.4585 133.189V138.39H91.2578V133.189H96.4585Z" fill="black"></path><path d="M96.4585 128.013V133.215H91.2578V128.013H96.4585Z" fill="black"></path><path d="M96.4585 107.311V112.511H91.2578V107.311H96.4585Z" fill="black"></path><path d="M91.2857 138.365V143.567H86.084V138.365H91.2857Z" fill="black"></path><path d="M91.2857 122.837V128.04H86.084V122.837H91.2857Z" fill="black"></path><path d="M91.2857 117.661V122.863H86.084V117.661H91.2857Z" fill="black"></path><path d="M91.2857 107.311V112.511H86.084V107.311H91.2857Z" fill="black"></path><path d="M86.1099 138.365V143.567H80.9082V138.365H86.1099Z" fill="black"></path><path d="M86.1099 112.485V117.687H80.9082V112.485H86.1099Z" fill="black"></path><path d="M86.1099 107.311V112.511H80.9082V107.311H86.1099Z" fill="black"></path><path d="M80.9313 133.189V138.39H75.7285V133.189H80.9313Z" fill="black"></path><path d="M80.9313 128.013V133.215H75.7285V128.013H80.9313Z" fill="black"></path><path d="M75.7564 122.837V128.04H70.5547V122.837H75.7564Z" fill="black"></path><path d="M75.7564 117.661V122.863H70.5547V117.661H75.7564Z" fill="black"></path><path d="M70.5806 112.485V117.687H65.3789V112.485H70.5806Z" fill="black"></path><path d="M65.4068 117.661V122.863H60.2051V117.661H65.4068Z" fill="black"></path><path d="M60.2251 122.837V128.04H55.0234V122.837H60.2251Z" fill="black"></path><path d="M55.0513 128.013V133.215H49.8496V128.013H55.0513Z" fill="black"></path><path d="M49.8755 133.189V138.39H44.6738V133.189H49.8755Z" fill="black"></path><path d="M101.634 91.7605V96.9622H96.4336V91.7605H101.634Z" fill="black"></path><path d="M106.819 96.9477V102.149H101.617V96.9477H106.819Z" fill="black"></path><path d="M96.4595 86.586V91.7866H91.2578V86.586H96.4595Z" fill="black"></path><path d="M91.2857 81.4089V86.6106H86.084V81.4089H91.2857Z" fill="black"></path><path d="M86.1109 76.2341V81.4348H80.9082V76.2341H86.1109Z" fill="black"></path><path d="M80.9302 71.0575V76.2603H75.7285V71.0575H80.9302Z" fill="black"></path><path d="M75.7564 65.8816V71.0833H70.5547V65.8816H75.7564Z" fill="black"></path><path d="M70.5796 60.706V65.9077H65.3789V60.706H70.5796Z" fill="black"></path><path d="M65.4068 55.5313V60.7319H60.2051V55.5313H65.4068Z" fill="black"></path><path d="M55.0524 45.1787V50.3804H49.8496V45.1787H55.0524Z" fill="black"></path><path d="M60.2251 50.3534V55.5562H55.0234V50.3534H60.2251Z" fill="black"></path><path d="M49.8755 40.0021V45.2048H44.6738V40.0021H49.8755Z" fill="black"></path><path d="M44.6998 133.189V138.39H39.498V133.189H44.6998Z" fill="black"></path><path d="M44.6987 128.013V133.215H39.498V128.013H44.6987Z" fill="black"></path><path d="M44.6987 122.837V128.04H39.498V122.837H44.6987Z" fill="black"></path><path d="M44.6987 117.661V122.863H39.498V117.661H44.6987Z" fill="black"></path><path d="M44.6987 112.485V117.687H39.498V112.485H44.6987Z" fill="black"></path><path d="M44.6987 107.311V112.511H39.498V107.311H44.6987Z" fill="black"></path><path d="M44.6987 102.134V107.336H39.498V102.134H44.6987Z" fill="black"></path><path d="M44.6987 96.9581V102.161H39.498V96.9581H44.6987Z" fill="black"></path><path d="M44.6987 91.7822V96.9839H39.498V91.7822H44.6987Z" fill="black"></path><path d="M44.6987 86.6064V91.8081H39.498V86.6064H44.6987Z" fill="black"></path><path d="M44.6987 81.4309V86.6326H39.498V81.4309H44.6987Z" fill="black"></path><path d="M44.6987 76.2551V81.4568H39.498V76.2551H44.6987Z" fill="black"></path><path d="M44.6987 71.0783V76.281H39.498V71.0783H44.6987Z" fill="black"></path><path d="M44.6987 65.9036V71.1042H39.498V65.9036H44.6987Z" fill="black"></path><path d="M44.6987 60.728V65.9287H39.498V60.728H44.6987Z" fill="black"></path><path d="M44.6987 55.5522V60.7539H39.498V55.5522H44.6987Z" fill="black"></path><path d="M44.6987 50.3764V55.5781H39.498V50.3764H44.6987Z" fill="black"></path><path d="M44.6987 45.1994V50.4021H39.498V45.1994H44.6987Z" fill="black"></path><path d="M106.797 102.149V107.311H80.9065V117.687H86.0833V128.039H91.259V138.365H80.9335V128.012H75.7567V117.661H70.5809V112.485H65.3792V117.661H60.2035V122.837H55.0277V128.012H49.852V133.189H44.7012V45.2047H49.852V50.3804H55.0277V55.5562H60.2035V60.7319H65.3803V65.9077H70.555V71.0834H75.7318V76.2602H80.9065V81.4349H86.0833V86.6107H91.259V91.7864H96.4348V96.9621H101.621V102.149H106.797Z" fill="white"></path><path d="M44.6987 40.0236V45.2253H39.498V40.0236H44.6987Z" fill="black"></path><path d="M44.6998 34.8491V40.0498H39.498V34.8491H44.6998Z" fill="black"></path></svg>